Coordinates
version=1
nRows=19
nColumns=24
inDegrees=yes

Units are S.I. units (second, meters, Newtons, ...)
Angles are in degrees.

endheader
time	pelvis_tilt	pelvis_list	pelvis_rotation	pelvis_tx	pelvis_ty	pelvis_tz	hip_flexion_r	hip_adduction_r	hip_rotation_r	knee_angle_r	ankle_angle_r	subtalar_angle_r	mtp_angle_r	hip_flexion_l	hip_adduction_l	hip_rotation_l	knee_angle_l	ankle_angle_l	subtalar_angle_l	mtp_angle_l	lumbar_extension	lumbar_bending	lumbar_rotation
      1.75000000	     68.12583646	     -1.81172325	      3.74626192	      0.65259144	      1.01262625	     -0.21723024	     -5.86703773	     -8.43187114	      0.64671143	    -62.20236183	    -11.13141305	     34.63874651	     84.36189245	     -8.66766450	    -13.56417719	      5.87278951	    -59.41858844	     -8.14046052	     29.19736838	     30.61017353	      0.00000000	      0.00000000	      0.00000000
      1.76000000	     68.15437402	     -1.79629406	      3.77486233	      0.65259312	      1.01286580	     -0.21736903	     -6.01850346	     -8.48788309	      0.66270418	    -62.44938167	    -11.19004912	     34.23598890	     84.20569330	     -8.81818667	    -13.59020014	      5.82884169	    -59.15288867	     -7.92638112	     29.15521889	     31.27290601	      0.00000000	      0.00000000	      0.00000000
      1.77000000	     68.18055854	     -1.78268033	      3.78477961	      0.65262439	      1.01312511	     -0.21744636	     -6.23883440	     -8.54791293	      0.71423357	    -62.50787870	    -11.20832230	     34.00288157	     84.19075439	     -8.91691209	    -13.61546998	      5.80534772	    -59.00996412	     -7.77743982	     29.13289179	     31.83849928	      0.00000000	      0.00000000	      0.00000000
      1.78000000	     68.20031972	     -1.78206479	      3.77601483	      0.65266684	      1.01316451	     -0.21730250	     -6.50190039	     -8.62831777	      0.76764381	    -62.43646883	    -11.20619033	     33.91111792	     84.30959402	     -8.96852447	    -13.64521016	      5.79659174	    -58.95947776	     -7.68832639	     29.12739169	     32.28057469	      0.00000000	      0.00000000	      0.00000000
      1.79000000	     68.21119672	     -1.79364476	      3.75933806	      0.65270635	      1.01292598	     -0.21699937	     -6.76776506	     -8.72852959	      0.79691885	    -62.30052312	    -11.21142660	     33.91281272	     84.53863412	     -8.98859151	    -13.67817450	      5.79538385	    -58.95937930	     -7.64611368	     29.13331758	     32.58009888	      0.00000000	      0.00000000	      0.00000000
      1.80000000	     68.21663227	     -1.80657457	      3.74954348	      0.65274672	      1.01265754	     -0.21676539	     -6.98947784	     -8.83241928	      0.78701705	    -62.15516435	    -11.25345112	     33.95247685	     84.84438339	     -8.99733621	    -13.70659364	      5.79529288	    -58.97253546	     -7.63617987	     29.14420458	     32.72486388	      0.00000000	      0.00000000	      0.00000000
      1.81000000	     68.22249098	     -1.80940015	      3.75593891	      0.65279343	      1.01268605	     -0.21676087	     -7.13127481	     -8.92242791	      0.73628787	    -62.03049107	    -11.35711247	     33.97825001	     85.19017981	     -9.00794558	    -13.72251051	      5.79286238	    -58.97831881	     -7.64722636	     29.15376576	     32.70870718	      0.00000000	      0.00000000	      0.00000000
      1.82000000	     68.22897165	     -1.79863883	      3.77739879	      0.65284311	      1.01299017	     -0.21692130	     -7.18690475	     -8.99352212	      0.65864035	    -61.92459569	    -11.53817704	     33.95008658	     85.54217911	     -9.01757126	    -13.72436049	      5.78870420	    -58.97772304	     -7.67434026	     29.15697203	     32.53100965	      0.00000000	      0.00000000	      0.00000000
      1.83000000	     68.22964415	     -1.77998070	      3.80506545	      0.65288802	      1.01323498	     -0.21705730	     -7.18034948	     -9.05490272	      0.58072732	    -61.80809683	    -11.80170582	     33.84365436	     85.87349133	     -9.00835202	    -13.71784460	      5.78662203	    -58.99241245	     -7.71970643	     29.15096970	     32.19677255	      0.00000000	      0.00000000	      0.00000000
      1.84000000	     68.21903514	     -1.76245534	      3.82916179	      0.65294068	      1.01320715	     -0.21706779	     -7.14789052	     -9.11926465	      0.53220006	    -61.63817079	    -12.14312356	     33.65003929	     86.16585447	     -8.95835006	    -13.71087922	      5.79127256	    -59.05824487	     -7.79092650	     29.13571536	     31.71728741	      0.00000000	      0.00000000	      0.00000000
      1.85000000	     68.19803949	     -1.75188040	      3.84399055	      0.65303377	      1.01296327	     -0.21696566	     -7.11842950	     -9.19053793	      0.53381429	    -61.37515771	    -12.55066564	     33.37244269	     86.40890191	     -8.85485776	    -13.70764624	      5.80589166	    -59.21374415	     -7.89725746	     29.11411445	     31.11111657	      0.00000000	      0.00000000	      0.00000000
      1.86000000	     68.17289569	     -1.74741578	      3.84841337	      0.65316371	      1.01269065	     -0.21681556	     -7.10409918	     -9.25912556	      0.58982115	    -60.99478134	    -13.00789238	     33.02157242	     86.59766690	     -8.70143672	    -13.70677674	      5.83127843	    -59.48515363	     -8.04471754	     29.09154117	     30.40483938	      0.00000000	      0.00000000	      0.00000000
      1.87000000	     68.15133106	     -1.74327483	      3.84390048	      0.65325139	      1.01259859	     -0.21672357	     -7.10191163	     -9.30755800	      0.68819503	    -60.49227895	    -13.49576059	     32.61131768	     86.72918195	     -8.51530623	    -13.70432262	      5.86608782	    -59.87205684	     -8.23173760	     29.07484684	     29.63289043	      0.00000000	      0.00000000	      0.00000000
      1.88000000	     68.13848714	     -1.73642323	      3.83359433	      0.65322006	      1.01277052	     -0.21674211	     -7.10243750	     -9.32373745	      0.80817117	    -59.87843034	    -13.99447040	     32.15571819	     86.79895382	     -8.31847193	    -13.69805296	      5.90780305	    -60.33984699	     -8.44731917	     29.07115239	     28.83593743	      0.00000000	      0.00000000	      0.00000000
      1.89000000	     68.13459225	     -1.73220781	      3.82217983	      0.65311520	      1.01302992	     -0.21678976	     -7.09807505	     -9.31009965	      0.93045842	    -59.16989780	    -14.48550315	     31.66750092	     86.79796195	     -8.12946642	    -13.68941698	      5.95398674	    -60.82548875	     -8.67301206	     29.08672840	     28.05765471	      0.00000000	      0.00000000	      0.00000000
      1.90000000	     68.13524179	     -1.73911456	      3.81381962	      0.65305453	      1.01312227	     -0.21678482	     -7.08541379	     -9.27933791	      1.04457064	    -58.37825164	    -14.95394569	     31.15788676	     86.71073573	     -7.96053976	    -13.68265797	      6.00370624	    -61.25813593	     -8.88830887	     29.12609947	     27.34032439	      0.00000000	      0.00000000	      0.00000000
      1.91000000	     68.13287971	     -1.75956305	      3.80914122	      0.65306721	      1.01301538	     -0.21675065	     -7.06428900	     -9.24335632	      1.15098768	    -57.50367503	    -15.39067217	     30.63710594	     86.51497600	     -7.81881618	    -13.68225943	      6.05798650	    -61.58495204	     -9.07680280	     29.19134038	     26.72017202	      0.00000000	      0.00000000	      0.00000000
      1.92000000	     68.11975152	     -1.78793633	      3.80498477	      0.65308806	      1.01287813	     -0.21673364	     -7.03708203	     -9.20626549	      1.25873137	    -56.53729779	    -15.79368490	     30.11507984	     86.18298255	     -7.70688886	    -13.68985647	      6.11787091	    -61.78651694	     -9.22987894	     29.28154034	     26.22344130	      0.00000000	      0.00000000	      0.00000000
      1.93000000	     68.09213357	     -1.81559928	      3.79734704	      0.65306921	      1.01284881	     -0.21672488	     -7.00741916	     -9.16415478	      1.37993135	    -55.47097073	    -16.16809265	     29.60191234	     85.68480618	     -7.62258877	    -13.70300006	      6.18138432	    -61.87558637	     -9.34686646	     29.39256549	     25.86393439	      0.00000000	      0.00000000	      0.00000000
